<svg width="270" height="50" fill="none" xmlns="http://www.w3.org/2000/svg"><path d="M75.342 19.242 72.514 29h-1.428l-2.268-7.854L66.466 29l-1.414.014-2.73-9.772h1.358l2.128 8.274 2.352-8.274h1.428l2.24 8.246 2.142-8.246h1.372Zm3.368 0V29h-1.274v-9.758h1.274Zm8.878 0v1.036h-2.66V29h-1.275v-8.722H80.98v-1.036h6.609Zm1.792 4.872c0-.952.214-1.806.644-2.562a4.68 4.68 0 0 1 1.75-1.792 4.883 4.883 0 0 1 2.478-.644c1.064 0 1.992.257 2.786.77.793.513 1.372 1.241 1.736 2.184h-1.526a3.048 3.048 0 0 0-1.176-1.358c-.504-.317-1.11-.476-1.82-.476-.682 0-1.293.159-1.834.476-.542.317-.966.77-1.274 1.358-.308.579-.462 1.26-.462 2.044 0 .775.154 1.456.462 2.044a3.34 3.34 0 0 0 1.274 1.344c.541.317 1.152.476 1.834.476.71 0 1.316-.154 1.82-.462.513-.317.905-.77 1.176-1.358h1.526c-.364.933-.943 1.657-1.736 2.17-.794.504-1.722.756-2.786.756-.906 0-1.732-.21-2.478-.63a4.708 4.708 0 0 1-1.75-1.778c-.43-.756-.644-1.61-.644-2.562Zm19.508-4.872V29h-1.274v-4.424h-4.97V29h-1.274v-9.758h1.274v4.284h4.97v-4.284h1.274Zm11.732 9.856c-.905 0-1.731-.21-2.478-.63a4.78 4.78 0 0 1-1.778-1.778c-.429-.765-.644-1.624-.644-2.576s.215-1.806.644-2.562a4.649 4.649 0 0 1 1.778-1.778 4.884 4.884 0 0 1 2.478-.644c.915 0 1.745.215 2.492.644a4.572 4.572 0 0 1 1.764 1.764c.429.756.644 1.615.644 2.576 0 .961-.215 1.82-.644 2.576a4.673 4.673 0 0 1-1.764 1.778c-.747.42-1.577.63-2.492.63Zm0-1.106c.681 0 1.293-.159 1.834-.476.551-.317.98-.77 1.288-1.358.317-.588.476-1.27.476-2.044 0-.784-.159-1.465-.476-2.044a3.32 3.32 0 0 0-1.274-1.358c-.541-.317-1.157-.476-1.848-.476-.691 0-1.307.159-1.848.476-.541.317-.971.77-1.288 1.358-.308.579-.462 1.26-.462 2.044 0 .775.154 1.456.462 2.044.317.588.747 1.04 1.288 1.358a3.636 3.636 0 0 0 1.848.476Zm12.798-8.75v1.036h-4.242v3.29h3.444v1.036h-3.444V29h-1.274v-9.758h5.516Zm16.569.07V29h-1.274v-7.224L145.493 29h-.896l-3.234-7.238V29h-1.274v-9.688h1.372l3.584 8.008 3.584-8.008h1.358Zm7.285 9.786c-.906 0-1.732-.21-2.478-.63a4.773 4.773 0 0 1-1.778-1.778c-.43-.765-.644-1.624-.644-2.576s.214-1.806.644-2.562a4.642 4.642 0 0 1 1.778-1.778 4.88 4.88 0 0 1 2.478-.644c.914 0 1.745.215 2.492.644a4.586 4.586 0 0 1 1.764 1.764c.429.756.644 1.615.644 2.576 0 .961-.215 1.82-.644 2.576a4.687 4.687 0 0 1-1.764 1.778c-.747.42-1.578.63-2.492.63Zm0-1.106c.681 0 1.292-.159 1.834-.476.55-.317.98-.77 1.288-1.358.317-.588.476-1.27.476-2.044 0-.784-.159-1.465-.476-2.044a3.32 3.32 0 0 0-1.274-1.358c-.542-.317-1.158-.476-1.848-.476-.691 0-1.307.159-1.848.476-.542.317-.971.77-1.288 1.358-.308.579-.462 1.26-.462 2.044 0 .775.154 1.456.462 2.044.317.588.746 1.04 1.288 1.358a3.63 3.63 0 0 0 1.848.476Zm8.527-8.75v6.174c0 .868.21 1.512.63 1.932.43.42 1.022.63 1.778.63.747 0 1.33-.21 1.75-.63.43-.42.644-1.064.644-1.932v-6.174h1.274v6.16c0 .812-.163 1.498-.49 2.058-.326.55-.77.961-1.33 1.232-.55.27-1.171.406-1.862.406-.69 0-1.316-.135-1.876-.406a3.102 3.102 0 0 1-1.316-1.232c-.317-.56-.476-1.246-.476-2.058v-6.16h1.274ZM182.373 29h-1.274l-5.124-7.77V29h-1.274v-9.772h1.274l5.124 7.756v-7.756h1.274V29Zm8.877-9.758v1.036h-2.66V29h-1.274v-8.722h-2.674v-1.036h6.608Zm8.037 7.588h-4.256l-.784 2.17h-1.344l3.528-9.702h1.47L201.415 29h-1.344l-.784-2.17Zm-.364-1.036-1.764-4.928-1.764 4.928h3.528Zm6.003-6.552V29h-1.274v-9.758h1.274ZM215.47 29h-1.274l-5.124-7.77V29h-1.274v-9.772h1.274l5.124 7.756v-7.756h1.274V29Zm19.568-9.758L232.21 29h-1.428l-2.268-7.854L226.162 29l-1.414.014-2.73-9.772h1.358l2.128 8.274 2.352-8.274h1.428l2.24 8.246 2.142-8.246h1.372Zm3.368 0V29h-1.274v-9.758h1.274ZM248.949 29h-1.274l-5.124-7.77V29h-1.274v-9.772h1.274l5.124 7.756v-7.756h1.274V29Zm5.91-9.758c1.064 0 1.983.2 2.758.602a4.091 4.091 0 0 1 1.792 1.694c.42.737.63 1.605.63 2.604 0 .999-.21 1.867-.63 2.604-.411.728-1.008 1.288-1.792 1.68-.775.383-1.694.574-2.758.574h-3.038v-9.758h3.038Zm0 8.708c1.26 0 2.221-.331 2.884-.994.663-.672.994-1.61.994-2.814 0-1.213-.336-2.16-1.008-2.842-.663-.681-1.619-1.022-2.87-1.022h-1.764v7.672h1.764Zm10.654 1.148c-.644 0-1.222-.112-1.736-.336-.504-.233-.9-.55-1.19-.952a2.48 2.48 0 0 1-.448-1.414h1.358c.047.457.234.845.56 1.162.336.308.822.462 1.456.462.607 0 1.083-.15 1.428-.448.355-.308.532-.7.532-1.176 0-.373-.102-.677-.308-.91a1.965 1.965 0 0 0-.77-.532 12.013 12.013 0 0 0-1.246-.392c-.644-.168-1.162-.336-1.554-.504a2.585 2.585 0 0 1-.994-.784c-.27-.364-.406-.85-.406-1.456 0-.532.136-1.003.406-1.414.271-.41.649-.728 1.134-.952.495-.224 1.06-.336 1.694-.336.915 0 1.662.229 2.24.686.588.457.92 1.064.994 1.82h-1.4c-.046-.373-.242-.7-.588-.98-.345-.29-.802-.434-1.372-.434-.532 0-.966.14-1.302.42-.336.27-.504.653-.504 1.148 0 .355.098.644.294.868.206.224.453.397.742.518.299.112.714.243 1.246.392.644.177 1.162.355 1.554.532a2.51 2.51 0 0 1 1.008.798c.28.355.42.84.42 1.456 0 .476-.126.924-.378 1.344-.252.42-.625.76-1.12 1.022-.494.261-1.078.392-1.75.392Z" fill="#344F10"/><circle cx="25" cy="25" r="24.5" fill="#E4DFD3" stroke="#344F10"/><path fill-rule="evenodd" clip-rule="evenodd" d="M24.953 15.052 27.407 22h-4.87l2.444 1.573 9.225-5.938L45 24.583H27.427L24.989 30.5l-2.427-5.892H5l10.794-6.948 6.713 4.32 2.446-6.928ZM26.952 34.5l-1.963-3.97-1.963 3.97h3.926Z" fill="#344F10"/><path d="m25 24 2.5-2h-5l2.5 2Z" fill="#344F10"/></svg>